# xmcd
#
# Track frame offsets:
# 150
# 17283
# 32684
# 50760
# 63753
# 75754
# 91664
# 106225
# 121766
# 136600
# 149629
# 170312
# 186881
# 202345
# 214257
# 228796
# 240664
# 254976
#
# Disc length: 3564 seconds
#
# Revision: 0
# Processed by: cddbd v1.5.1PL0 Copyright (c) Steve Scherf et al.
# Submitted via: Audion 3.0.2 (http://www.panic.com/audion/)
#
DISCID=ed0dea12
DTITLE=red tent - disc 10
DYEAR=1900
DGENRE=
TTITLE0=chapter
TTITLE1=chapter
TTITLE2=chapter
TTITLE3=chapter
TTITLE4=chapter
TTITLE5=chapter
TTITLE6=chapter
TTITLE7=chapter
TTITLE8=chapter
TTITLE9=chapter
TTITLE10=chapter
TTITLE11=chapter
TTITLE12=chapter
TTITLE13=chapter
TTITLE14=chapter
TTITLE15=chapter
TTITLE16=chapter
TTITLE17=chapter
EXTD=
EXTT0=
EXTT1=
EXTT2=
EXTT3=
EXTT4=
EXTT5=
EXTT6=
EXTT7=
EXTT8=
EXTT9=
EXTT10=
EXTT11=
EXTT12=
EXTT13=
EXTT14=
EXTT15=
EXTT16=
EXTT17=
PLAYORDER=
